<svg id="_7._Accounts" data-name="7. Accounts" xmlns="http://www.w3.org/2000/svg" width="14.349" height="16.49" viewBox="0 0 14.349 16.49">
  <path id="_7._Accounts-2" data-name="7. Accounts" d="M13.393,0H2.957A2.011,2.011,0,0,0,1,2.061V16.49H15.349V2.061A2.011,2.011,0,0,0,13.393,0ZM4.913,13.055h-1.3V11.681h1.3Zm0-2.748h-1.3V8.932h1.3Zm2.609,2.748h-1.3V11.681h1.3Zm0-2.748h-1.3V8.932h1.3Zm5.218,2.748H8.827V11.681H12.74ZM8.827,10.306V8.932h1.3v1.374Zm3.913,0h-1.3V8.932h1.3Zm0-3.435H3.609V2.748H12.74ZM11.436,5.5H4.913V4.123h6.522Z" transform="translate(-1)" fill="#728694"/>
</svg>
