<svg id="Component_67_1" data-name="Component 67 – 1" xmlns="http://www.w3.org/2000/svg" width="15.729" height="16.587" viewBox="0 0 15.729 16.587">
  <ellipse id="Ellipse_135" data-name="Ellipse 135" cx="1.173" cy="1.278" rx="1.173" ry="1.278" transform="translate(3.908 14.031)" fill="#728694"/>
  <ellipse id="Ellipse_136" data-name="Ellipse 136" cx="1.173" cy="1.278" rx="1.173" ry="1.278" transform="translate(10.943 14.031)" fill="#728694"/>
  <path id="Path_458" data-name="Path 458" d="M15.729,6.835a4.048,4.048,0,0,1-5.6,1.039,4.368,4.368,0,0,1-1.3-5.734h-5.9L2.9,1.889A2.1,2.1,0,0,0,.843,0H0V1.426H.843a.7.7,0,0,1,.685.63L2.62,11.661a2.1,2.1,0,0,0,2.053,1.889h9.116V12.124H4.673a.7.7,0,0,1-.685-.63l-.09-.8H15.055Z" fill="#728694"/>
  <path id="Path_459" data-name="Path 459" d="M19.279,4.426H17.853V3H16.426V4.426H15V5.853h1.426V7.279h1.426V5.853h1.426Z" transform="translate(-4.303 -0.859)" fill="#728694"/>
</svg>
