<svg id="Component_70_1" data-name="Component 70 – 1" xmlns="http://www.w3.org/2000/svg" width="16" height="16.041" viewBox="0 0 16 16.041">
  <path id="Path_463" data-name="Path 463" d="M7.514-511.7a1.154,1.154,0,0,0-.473.276c-.2.2-.254.367-.348,1.111a5.561,5.561,0,0,1-.113.709.338.338,0,0,1-.141.072c-.063.022-.26.1-.438.179l-.323.144-.116-.094a11.693,11.693,0,0,0-1.071-.794,1.092,1.092,0,0,0-.739-.047c-.178.05-.21.078-.911.778s-.726.734-.777.913a1.1,1.1,0,0,0,.047.741,7.247,7.247,0,0,0,.448.628c.207.267.391.505.407.524s-.016.144-.113.361c-.078.179-.157.377-.178.439a.338.338,0,0,1-.072.141,5.991,5.991,0,0,1-.711.116c-.745.094-.9.144-1.105.345a1.363,1.363,0,0,0-.2.279l-.085.163v2.008l.081.176a1.282,1.282,0,0,0,.2.295c.207.207.369.257,1.115.351a5.517,5.517,0,0,1,.708.113.339.339,0,0,1,.072.141c.022.063.1.26.178.439.1.217.132.333.113.361s-.2.257-.407.524a7.247,7.247,0,0,0-.448.628,1.1,1.1,0,0,0-.047.741c.05.176.081.213.73.869.811.819.861.853,1.274.853a.734.734,0,0,0,.423-.075c.11-.06.539-.38,1.152-.86.025-.022.113,0,.282.082.132.06.338.144.454.182.153.053.216.094.225.138s.05.351.094.706c.088.712.141.875.344,1.082a1.28,1.28,0,0,0,.294.2l.175.082H9.486l.175-.082a1.28,1.28,0,0,0,.294-.2c.207-.21.257-.37.351-1.117a4.59,4.59,0,0,1,.116-.706,1.37,1.37,0,0,1,.269-.122,4.516,4.516,0,0,0,.423-.182c.219-.11.147-.144.783.355a7.446,7.446,0,0,0,.611.439,1.092,1.092,0,0,0,.739.047c.175-.05.213-.082.867-.731.817-.813.852-.863.852-1.277,0-.355-.025-.4-.526-1.051-.207-.267-.391-.505-.407-.524s.016-.144.113-.361c.078-.179.157-.376.178-.439a.339.339,0,0,1,.072-.141,5.517,5.517,0,0,1,.708-.113c.745-.094.9-.141,1.112-.351a1.261,1.261,0,0,0,.2-.295l.081-.176v-1.977l-.081-.176a1.281,1.281,0,0,0-.2-.295c-.207-.207-.369-.257-1.115-.351a5.517,5.517,0,0,1-.708-.113.338.338,0,0,1-.072-.141c-.022-.063-.1-.26-.178-.439-.1-.216-.132-.333-.113-.361s.2-.257.407-.524a7.247,7.247,0,0,0,.448-.628,1.1,1.1,0,0,0,.047-.741c-.05-.179-.078-.21-.777-.913s-.733-.728-.911-.778a1.091,1.091,0,0,0-.739.047,7.475,7.475,0,0,0-.611.439c-.636.5-.564.464-.783.355a4.5,4.5,0,0,0-.423-.182,1.375,1.375,0,0,1-.269-.122,4.593,4.593,0,0,1-.116-.706c-.094-.747-.144-.907-.351-1.117a1.279,1.279,0,0,0-.294-.2l-.175-.082-.939-.006C8.03-511.722,7.567-511.713,7.514-511.7Zm1.331,4.678a3.214,3.214,0,0,1,1.049.295,3.282,3.282,0,0,1,1.628,1.628,3.324,3.324,0,0,1-.7,3.793,3.3,3.3,0,0,1-3.72.64,3.217,3.217,0,0,1-.927-.64,3.324,3.324,0,0,1-.7-3.793,3.384,3.384,0,0,1,2.975-1.952C8.522-507.05,8.7-507.037,8.844-507.022Z" transform="translate(-0.5 511.719)" fill="#728694"/>
</svg>
