<svg id="Layer_2" data-name="Layer 2" xmlns="http://www.w3.org/2000/svg" xmlns:xlink="http://www.w3.org/1999/xlink" width="145.855" height="48.595" viewBox="0 0 145.855 48.595">
  <defs>
    <linearGradient id="linear-gradient" x1="0.613" y1="0.998" x2="0.387" y2="0.002" gradientUnits="objectBoundingBox">
      <stop offset="0" stop-color="#005d96"/>
      <stop offset="0.3" stop-color="#005d96"/>
      <stop offset="0.32" stop-color="#025f98"/>
      <stop offset="0.57" stop-color="#1873b1"/>
      <stop offset="0.81" stop-color="#2580c0"/>
      <stop offset="1" stop-color="#2a84c5"/>
    </linearGradient>
    <linearGradient id="linear-gradient-2" x1="0.564" y1="0.998" x2="0.436" y2="0.002" xlink:href="#linear-gradient"/>
    <linearGradient id="linear-gradient-3" x1="0.587" y1="1.018" x2="0.424" y2="0.047" xlink:href="#linear-gradient"/>
    <linearGradient id="linear-gradient-4" x1="0.906" y1="1.302" x2="-0.213" y2="-0.909" gradientUnits="objectBoundingBox">
      <stop offset="0" stop-color="#005d96" stop-opacity="0"/>
      <stop offset="0.3" stop-color="#005d96" stop-opacity="0.102"/>
      <stop offset="0.43" stop-color="#07639e" stop-opacity="0.251"/>
      <stop offset="0.73" stop-color="#1974b2" stop-opacity="0.631"/>
      <stop offset="1" stop-color="#2a84c5"/>
    </linearGradient>
    <linearGradient id="linear-gradient-5" x1="0.787" y1="1.719" x2="0.136" y2="-1.042" xlink:href="#linear-gradient-4"/>
    <linearGradient id="linear-gradient-6" x1="0.703" y1="1.311" x2="0.195" y2="-0.721" xlink:href="#linear-gradient-4"/>
  </defs>
  <g id="Layer_1" data-name="Layer 1">
    <path id="Path_482" data-name="Path 482" d="M0,432.633V420.06H3.166v5.09H7.96v-5.09h3.15v12.573H7.96v-5H3.166v5Z" transform="translate(57.741 -407.757)" fill="#141433"/>
    <path id="Path_483" data-name="Path 483" d="M87.849,432.583v-5.428L82.9,420.009h3.893l3.722,6.006H89.047L92.432,420h3.149l-5.014,7.916.45-1.621v6.3Z" transform="translate(-12.035 -407.707)" fill="#141433"/>
    <path id="Path_484" data-name="Path 484" d="M174.833,431.391a15.806,15.806,0,0,1-1.8-.093,10.106,10.106,0,0,1-1.487-.283,8.393,8.393,0,0,1-1.33-.489v-2.9a6.458,6.458,0,0,0,2.034,1.056,7.153,7.153,0,0,0,2.151.358,2.422,2.422,0,0,0,1.379-.329,1.142,1.142,0,0,0,.475-1.008.96.96,0,0,0-.44-.82,4.429,4.429,0,0,0-1.164-.548q-.723-.236-1.624-.537a7.276,7.276,0,0,1-1.108-.434,3.866,3.866,0,0,1-.978-.668,2.97,2.97,0,0,1-.684-.99,3.591,3.591,0,0,1-.255-1.433,3.91,3.91,0,0,1,.293-1.49,3.6,3.6,0,0,1,.91-1.282,4.418,4.418,0,0,1,1.583-.895,6.911,6.911,0,0,1,2.248-.329,9.406,9.406,0,0,1,1.425.093,7.817,7.817,0,0,1,1.184.274,8.734,8.734,0,0,1,1.154.461v2.941a7.448,7.448,0,0,0-1.008-.67,7.1,7.1,0,0,0-1.164-.518,4.247,4.247,0,0,0-1.267-.226,3.681,3.681,0,0,0-1.075.112,1.583,1.583,0,0,0-.763.424,1.04,1.04,0,0,0-.274.744,1.062,1.062,0,0,0,.332.829,2.6,2.6,0,0,0,.918.5c.393.131.828.272,1.311.424a14.119,14.119,0,0,1,1.477.5,4.593,4.593,0,0,1,1.184.689,2.794,2.794,0,0,1,.782,1.018,3.5,3.5,0,0,1,.274,1.45,4.011,4.011,0,0,1-.548,2.058,3.835,3.835,0,0,1-1.583,1.471A5.586,5.586,0,0,1,174.833,431.391Z" transform="translate(-85.347 -406.252)" fill="#141433"/>
    <path id="Path_485" data-name="Path 485" d="M238.32,432.633l4.93-12.573h3.462l4.615,12.573h-3.242l-4.165-11.856,1.545-.133-4.146,11.989Zm2.778-2.715.654-2.243h5.926l.293,2.243Z" transform="translate(-142.851 -407.757)" fill="#141433"/>
    <path id="Path_486" data-name="Path 486" d="M332.22,432.625V420.052h5.541a7.88,7.88,0,0,1,2.474.348,3.313,3.313,0,0,1,1.634,1.108,3.232,3.232,0,0,1,.587,2.026,2.188,2.188,0,0,1-.431,1.395,3.324,3.324,0,0,1-1.037.876,7.941,7.941,0,0,1-1.135.519l-.352-.66a4.737,4.737,0,0,1,1.887.424,3.076,3.076,0,0,1,1.266,1.075,2.9,2.9,0,0,1,.453,1.653,3.406,3.406,0,0,1-.655,2.159,3.876,3.876,0,0,1-1.751,1.244,6.967,6.967,0,0,1-2.425.405Zm3.166-7.634h2.546a1.6,1.6,0,0,0,.625-.123,1.088,1.088,0,0,0,.475-.386,1.481,1.481,0,0,0-.245-1.762,1.835,1.835,0,0,0-1.056-.293h-2.341Zm0,5.276h2.656a2.764,2.764,0,0,0,.9-.141,1.349,1.349,0,0,0,.665-.491,1.547,1.547,0,0,0,.255-.932,1.464,1.464,0,0,0-.158-.716,1.16,1.16,0,0,0-.421-.443,1.985,1.985,0,0,0-.6-.236,3.174,3.174,0,0,0-.7-.076h-2.593Z" transform="translate(-221.885 -407.75)" fill="#141433"/>
    <path id="Path_487" data-name="Path 487" d="M409.31,432.633l4.93-12.573H417.7l4.615,12.573h-3.241l-4.165-11.856,1.545-.133-4.146,11.989Zm2.778-2.715.646-2.243h5.926l.293,2.243Z" transform="translate(-286.771 -407.757)" fill="#141433"/>
    <path id="Path_488" data-name="Path 488" d="M493.655,432.633V422.416H490V420.06h10.542v2.356h-3.717v10.218Z" transform="translate(-354.687 -407.757)" fill="#141433"/>
    <path id="Path_489" data-name="Path 489" d="M.89,537.093V530.32h.736l2.334,3.849-.464.111,2.465-3.958H6.7v6.771H6.018v-6.041h.3l-2.6,3.918-2.4-3.837.245-.375v6.332Z" transform="translate(56.991 -500.562)" fill="#141433"/>
    <path id="Path_490" data-name="Path 490" d="M48.318,545.8a2.856,2.856,0,0,1-.633-.071,1.8,1.8,0,0,1-.586-.244,1.287,1.287,0,0,1-.434-.475,1.547,1.547,0,0,1-.166-.757,1.985,1.985,0,0,1,.223-1.01,1.267,1.267,0,0,1,.613-.548,2.265,2.265,0,0,1,.9-.168,3.757,3.757,0,0,1,.67.051,2.186,2.186,0,0,1,.505.147,2.428,2.428,0,0,1,.4.215l.131.67a1.9,1.9,0,0,0-.633-.3,3.019,3.019,0,0,0-.9-.127,1.486,1.486,0,0,0-.915.244.831.831,0,0,0-.317.709.886.886,0,0,0,.19.606,1.051,1.051,0,0,0,.491.317,2.088,2.088,0,0,0,.617.1,3.36,3.36,0,0,0,.929-.1.416.416,0,0,0,.317-.442v-2.332a1.082,1.082,0,0,0-.317-.863,1.366,1.366,0,0,0-.929-.274,3,3,0,0,0-.792.116,1.927,1.927,0,0,0-.722.37v-.73a2.172,2.172,0,0,1,.792-.317,4.456,4.456,0,0,1,.95-.106,2.461,2.461,0,0,1,.576.065,1.706,1.706,0,0,1,.475.193,1.283,1.283,0,0,1,.355.324,1.564,1.564,0,0,1,.226.458,1.959,1.959,0,0,1,.079.584v2.463a1.016,1.016,0,0,1-.3.8,1.516,1.516,0,0,1-.774.345A6,6,0,0,1,48.318,545.8Z" transform="translate(18.605 -509.113)" fill="#141433"/>
    <path id="Path_491" data-name="Path 491" d="M81,541a4.82,4.82,0,0,1,.475-.219,3.557,3.557,0,0,1,.491-.158,4.1,4.1,0,0,1,.51-.092A4.421,4.421,0,0,1,83,540.5a2.32,2.32,0,0,1,1.094.219,1.3,1.3,0,0,1,.591.633,2.469,2.469,0,0,1,.184,1.005v3.3h-.679v-3.3a1.86,1.86,0,0,0-.043-.385,1.121,1.121,0,0,0-.158-.391.878.878,0,0,0-.378-.306,1.655,1.655,0,0,0-.679-.115,3.638,3.638,0,0,0-.6.051,4.332,4.332,0,0,0-.633.158v4.289H81Z" transform="translate(-10.436 -509.126)" fill="#141433"/>
    <path id="Path_492" data-name="Path 492" d="M115.882,545.8a2.853,2.853,0,0,1-.633-.071,1.791,1.791,0,0,1-.586-.244,1.3,1.3,0,0,1-.435-.475,1.566,1.566,0,0,1-.158-.757,2,2,0,0,1,.222-1.01,1.281,1.281,0,0,1,.614-.548,2.264,2.264,0,0,1,.9-.168,3.769,3.769,0,0,1,.671.051,2.242,2.242,0,0,1,.505.147,2.407,2.407,0,0,1,.4.215l.133.67a1.922,1.922,0,0,0-.633-.3,3.013,3.013,0,0,0-.9-.127,1.487,1.487,0,0,0-.917.244.834.834,0,0,0-.317.709.878.878,0,0,0,.193.6,1.043,1.043,0,0,0,.491.317,2.087,2.087,0,0,0,.608.09,3.367,3.367,0,0,0,.931-.1.416.416,0,0,0,.317-.442v-2.319a1.082,1.082,0,0,0-.317-.863,1.366,1.366,0,0,0-.917-.274,2.979,2.979,0,0,0-.792.116,1.946,1.946,0,0,0-.723.371v-.73a2.191,2.191,0,0,1,.792-.317,4.479,4.479,0,0,1,.95-.106,2.432,2.432,0,0,1,.575.065,1.717,1.717,0,0,1,.475.193,1.253,1.253,0,0,1,.353.324,1.49,1.49,0,0,1,.226.458,1.959,1.959,0,0,1,.081.584v2.463a1.018,1.018,0,0,1-.3.8,1.506,1.506,0,0,1-.774.345A5.974,5.974,0,0,1,115.882,545.8Z" transform="translate(-38.269 -509.113)" fill="#141433"/>
    <path id="Path_493" data-name="Path 493" d="M149.26,545.8a2.162,2.162,0,0,1-1.2-.317,1.856,1.856,0,0,1-.712-.883,3.56,3.56,0,0,1-.236-1.355,3.893,3.893,0,0,1,.217-1.425,2.048,2.048,0,0,1,.562-.831,1.91,1.91,0,0,1,.755-.4,3.23,3.23,0,0,1,.792-.106,2.808,2.808,0,0,1,.845.127,1.519,1.519,0,0,1,.66.4,1.018,1.018,0,0,1,.26.73v4.1a2.35,2.35,0,0,1-.085.619,1.526,1.526,0,0,1-.306.584,1.556,1.556,0,0,1-.624.432,2.806,2.806,0,0,1-1.034.158,3.223,3.223,0,0,1-.746-.081c-.226-.054-.424-.1-.6-.158v-.66c.1.027.215.059.345.1a4.335,4.335,0,0,0,.424.1,2.868,2.868,0,0,0,.5.039,2.058,2.058,0,0,0,.95-.168.817.817,0,0,0,.4-.417,1.389,1.389,0,0,0,.095-.5v-.741l.236.253a2.545,2.545,0,0,1-.453.193,4.916,4.916,0,0,1-.557.158A2.374,2.374,0,0,1,149.26,545.8Zm0-.67a2.566,2.566,0,0,0,.633-.087,2.231,2.231,0,0,0,.633-.269v-2.915a.584.584,0,0,0-.147-.431.771.771,0,0,0-.391-.2,2.348,2.348,0,0,0-.529-.057,1.6,1.6,0,0,0-1.039.29,1.425,1.425,0,0,0-.475.766,4.083,4.083,0,0,0-.123,1.026,2.5,2.5,0,0,0,.331,1.355A1.212,1.212,0,0,0,149.26,545.135Z" transform="translate(-66.076 -509.122)" fill="#141433"/>
    <path id="Path_494" data-name="Path 494" d="M182.84,531.123v-.8h.755v.8Zm.038,5.97v-5.066h.679v5.066Z" transform="translate(-96.154 -500.562)" fill="#141433"/>
    <path id="Path_495" data-name="Path 495" d="M197.45,541a5.053,5.053,0,0,1,.475-.219,3.681,3.681,0,0,1,.491-.158,4.2,4.2,0,0,1,.511-.092,4.408,4.408,0,0,1,.524-.03,2.318,2.318,0,0,1,1.094.22,1.3,1.3,0,0,1,.59.633,2.468,2.468,0,0,1,.184,1.005v3.3h-.679v-3.3a1.857,1.857,0,0,0-.043-.385,1.155,1.155,0,0,0-.158-.391.889.889,0,0,0-.378-.306,1.657,1.657,0,0,0-.679-.115,3.637,3.637,0,0,0-.6.051,4.355,4.355,0,0,0-.633.158v4.289h-.681Z" transform="translate(-108.451 -509.127)" fill="#141433"/>
    <path id="Path_496" data-name="Path 496" d="M232.33,545.8a2.166,2.166,0,0,1-1.2-.317,1.872,1.872,0,0,1-.712-.883,3.561,3.561,0,0,1-.236-1.355,3.892,3.892,0,0,1,.217-1.425,2.058,2.058,0,0,1,.562-.831,1.91,1.91,0,0,1,.755-.4,3.23,3.23,0,0,1,.792-.106,2.807,2.807,0,0,1,.845.127,1.519,1.519,0,0,1,.66.4,1.011,1.011,0,0,1,.26.73v4.1a2.411,2.411,0,0,1-.084.619,1.49,1.49,0,0,1-.931,1.016,2.8,2.8,0,0,1-1.034.158,3.223,3.223,0,0,1-.746-.081c-.226-.054-.424-.1-.6-.158v-.66c.1.027.217.059.345.1a4.233,4.233,0,0,0,.424.1,2.886,2.886,0,0,0,.5.039,2.043,2.043,0,0,0,.95-.168.811.811,0,0,0,.4-.417,1.389,1.389,0,0,0,.095-.5v-.741l.236.253a2.547,2.547,0,0,1-.453.193,4.915,4.915,0,0,1-.557.158A2.36,2.36,0,0,1,232.33,545.8Zm0-.67a2.566,2.566,0,0,0,.633-.087,2.216,2.216,0,0,0,.633-.269v-2.915a.59.59,0,0,0-.146-.431.792.792,0,0,0-.393-.2,2.342,2.342,0,0,0-.529-.057,1.6,1.6,0,0,0-1.039.29,1.425,1.425,0,0,0-.475.766,4.087,4.087,0,0,0-.123,1.026,2.5,2.5,0,0,0,.331,1.355A1.211,1.211,0,0,0,232.33,545.135Z" transform="translate(-135.995 -509.122)" fill="#141433"/>
    <path id="Path_497" data-name="Path 497" d="M281.756,548.091a.965.965,0,0,1-.255-.03c-.076-.021-.139-.041-.19-.06v-.671a1.291,1.291,0,0,0,.171.062.82.82,0,0,0,.236.03.717.717,0,0,0,.519-.193,1.54,1.54,0,0,0,.334-.518,6.073,6.073,0,0,0,.25-.72v.294l-2-5.224h.774l1.567,4.325h-.141l1.558-4.325h.679l-2.02,5.565a3.168,3.168,0,0,1-.475.913,1.545,1.545,0,0,1-.519.432A1.2,1.2,0,0,1,281.756,548.091Z" transform="translate(-178.622 -509.602)" fill="#141433"/>
    <path id="Path_498" data-name="Path 498" d="M314.6,545.818a1.916,1.916,0,0,1-1.639-.706,3.224,3.224,0,0,1-.533-1.965,2.985,2.985,0,0,1,.562-1.979,1.973,1.973,0,0,1,1.583-.66,2.16,2.16,0,0,1,1.246.329,1.9,1.9,0,0,1,.708.924,3.857,3.857,0,0,1,.226,1.385,3.082,3.082,0,0,1-.562,1.96A1.911,1.911,0,0,1,314.6,545.818Zm-.009-.67a1.356,1.356,0,0,0,.9-.269,1.465,1.465,0,0,0,.458-.722,3.455,3.455,0,0,0,.138-1.01,3.4,3.4,0,0,0-.142-1.04,1.335,1.335,0,0,0-.467-.686,1.436,1.436,0,0,0-.882-.244,1.359,1.359,0,0,0-.888.264,1.424,1.424,0,0,0-.458.7,3.362,3.362,0,0,0-.138,1,2.8,2.8,0,0,0,.331,1.447A1.235,1.235,0,0,0,314.592,545.149Z" transform="translate(-205.228 -509.136)" fill="#141433"/>
    <path id="Path_499" data-name="Path 499" d="M350.118,546.31a2.246,2.246,0,0,1-1.067-.234,1.566,1.566,0,0,1-.676-.679,2.373,2.373,0,0,1-.231-1.1V541.09h.679v3.046a1.688,1.688,0,0,0,.317,1.132,1.5,1.5,0,0,0,1.955,0,1.69,1.69,0,0,0,.317-1.132V541.09h.679V544.3a2.029,2.029,0,0,1-.514,1.486A1.959,1.959,0,0,1,350.118,546.31Z" transform="translate(-235.287 -509.627)" fill="#141433"/>
    <path id="Path_500" data-name="Path 500" d="M382.92,545.677v-4.661c.076-.033.222-.092.439-.173a6.02,6.02,0,0,1,.784-.223,4.355,4.355,0,0,1,.95-.1.559.559,0,0,1,.158.021l.158.04v.649a3.791,3.791,0,0,0-.475-.032,4.147,4.147,0,0,0-.448.025c-.146.017-.29.04-.434.066l-.435.081v4.306Z" transform="translate(-264.559 -509.147)" fill="#141433"/>
    <path id="Path_501" data-name="Path 501" d="M423.367,545.8a2.806,2.806,0,0,1-.855-.112,4.041,4.041,0,0,1-.712-.317V544.6c.195.116.369.214.519.294a1.9,1.9,0,0,0,.462.177,2.3,2.3,0,0,0,.538.057,1.237,1.237,0,0,0,.769-.225.69.69,0,0,0,.3-.578.609.609,0,0,0-.146-.437,1.183,1.183,0,0,0-.374-.253l-.475-.214c-.182-.054-.367-.112-.553-.177a2.18,2.18,0,0,1-.51-.253,1.227,1.227,0,0,1-.374-.407,1.3,1.3,0,0,1-.141-.644,1.393,1.393,0,0,1,.146-.66,1.363,1.363,0,0,1,.383-.451,1.556,1.556,0,0,1,.532-.263,2.191,2.191,0,0,1,.586-.081,1.921,1.921,0,0,1,.727.122c.2.081.408.173.622.274v.731c-.239-.136-.453-.245-.641-.331a1.635,1.635,0,0,0-.67-.127,1.415,1.415,0,0,0-.695.168.547.547,0,0,0-.307.513.633.633,0,0,0,.158.451,1.055,1.055,0,0,0,.41.264c.171.063.353.127.548.187.158.056.317.114.491.179a1.956,1.956,0,0,1,.475.253,1.2,1.2,0,0,1,.355.411,1.352,1.352,0,0,1,.136.649,1.461,1.461,0,0,1-.255.888,1.48,1.48,0,0,1-.646.513A2.074,2.074,0,0,1,423.367,545.8Z" transform="translate(-297.284 -509.118)" fill="#141433"/>
    <path id="Path_502" data-name="Path 502" d="M451.352,545.8a2.851,2.851,0,0,1-.633-.071,1.791,1.791,0,0,1-.586-.244,1.3,1.3,0,0,1-.435-.475,1.567,1.567,0,0,1-.158-.757,2,2,0,0,1,.222-1.01,1.28,1.28,0,0,1,.614-.548,2.264,2.264,0,0,1,.9-.168,3.771,3.771,0,0,1,.671.051,2.244,2.244,0,0,1,.5.147,2.406,2.406,0,0,1,.4.219l.133.67a1.92,1.92,0,0,0-.633-.3,3.006,3.006,0,0,0-.9-.127,1.487,1.487,0,0,0-.917.244.836.836,0,0,0-.317.709.88.88,0,0,0,.195.6,1.044,1.044,0,0,0,.491.317,2.084,2.084,0,0,0,.608.09,3.362,3.362,0,0,0,.931-.1.416.416,0,0,0,.317-.442v-2.322a1.082,1.082,0,0,0-.317-.863,1.366,1.366,0,0,0-.917-.274,2.98,2.98,0,0,0-.792.116,1.945,1.945,0,0,0-.723.371v-.73a2.193,2.193,0,0,1,.784-.317,4.48,4.48,0,0,1,.95-.106,2.432,2.432,0,0,1,.575.065,1.716,1.716,0,0,1,.475.193,1.249,1.249,0,0,1,.353.325,1.487,1.487,0,0,1,.226.457,1.961,1.961,0,0,1,.081.584v2.463a1.018,1.018,0,0,1-.3.8,1.507,1.507,0,0,1-.774.345A5.991,5.991,0,0,1,451.352,545.8Z" transform="translate(-320.63 -509.113)" fill="#141433"/>
    <path id="Path_503" data-name="Path 503" d="M484.8,535.906h-.679v-7h.679Z" transform="translate(-349.738 -499.375)" fill="#141433"/>
    <path id="Path_504" data-name="Path 504" d="M498.932,545.83a2.19,2.19,0,0,1-1.162-.3,1.932,1.932,0,0,1-.755-.9,3.7,3.7,0,0,1-.264-1.493,2.992,2.992,0,0,1,.552-1.965,2.131,2.131,0,0,1,2.729-.288,2.007,2.007,0,0,1,.655.985,4.392,4.392,0,0,1,.188,1.4h-3.785l.048-.671h3.291l-.264.1a1.8,1.8,0,0,0-.355-1.138,1.248,1.248,0,0,0-1-.375,1.477,1.477,0,0,0-.76.182,1.108,1.108,0,0,0-.458.633,4.148,4.148,0,0,0-.15,1.266,2.152,2.152,0,0,0,.4,1.406,1.387,1.387,0,0,0,1.129.483,3.347,3.347,0,0,0,.641-.057,2.693,2.693,0,0,0,.538-.158,2.79,2.79,0,0,0,.434-.223v.75a3.112,3.112,0,0,1-.75.265A4.1,4.1,0,0,1,498.932,545.83Z" transform="translate(-360.367 -509.148)" fill="#141433"/>
    <path id="Path_505" data-name="Path 505" d="M531.247,545.818a2.8,2.8,0,0,1-.855-.112,4.041,4.041,0,0,1-.712-.317v-.771c.195.116.369.214.519.295a1.889,1.889,0,0,0,.462.177,2.317,2.317,0,0,0,.538.057,1.237,1.237,0,0,0,.769-.225.687.687,0,0,0,.3-.578.61.61,0,0,0-.146-.437,1.189,1.189,0,0,0-.374-.253l-.475-.214c-.182-.054-.367-.112-.553-.177a2.187,2.187,0,0,1-.51-.253,1.2,1.2,0,0,1-.372-.407,1.286,1.286,0,0,1-.142-.644,1.392,1.392,0,0,1,.145-.66,1.363,1.363,0,0,1,.383-.451,1.555,1.555,0,0,1,.529-.26,2.185,2.185,0,0,1,.586-.081,1.915,1.915,0,0,1,.727.122c.2.081.409.173.624.274v.732c-.241-.136-.454-.245-.643-.331a1.638,1.638,0,0,0-.67-.127,1.426,1.426,0,0,0-.7.168.548.548,0,0,0-.307.513.634.634,0,0,0,.158.451,1.054,1.054,0,0,0,.41.264c.171.063.353.127.548.187.158.055.317.114.491.179a1.968,1.968,0,0,1,.475.253,1.2,1.2,0,0,1,.355.412,1.35,1.35,0,0,1,.138.649,1.469,1.469,0,0,1-.255.888,1.494,1.494,0,0,1-.647.513A2.078,2.078,0,0,1,531.247,545.818Z" transform="translate(-388.085 -509.135)" fill="#141433"/>
    <path id="Path_506" data-name="Path 506" d="M.6,0h11a.6.6,0,0,1,.6.6V23.277a.6.6,0,0,1-.6.6H.6a.6.6,0,0,1-.6-.6V.6A.6.6,0,0,1,.6,0Z" transform="translate(0 1.357) rotate(-6.39)" fill="url(#linear-gradient)"/>
    <path id="Path_507" data-name="Path 507" d="M.6,0h11a.6.6,0,0,1,.6.6V12.907a.6.6,0,0,1-.6.6H.6a.6.6,0,0,1-.6-.6V.6A.6.6,0,0,1,.6,0Z" transform="translate(15.999 9.999) rotate(-6.39)" fill="url(#linear-gradient-2)"/>
    <path id="Path_508" data-name="Path 508" d="M.6,0h11a.6.6,0,0,1,.6.6V17.008a.6.6,0,0,1-.6.6H.6a.6.6,0,0,1-.6-.6V.6A.6.6,0,0,1,.6,0Z" transform="translate(30.559 4.14) rotate(-6.39)" fill="url(#linear-gradient-3)"/>
    <path id="Path_509" data-name="Path 509" d="M.6,0h11a.6.6,0,0,1,.6.6V23.277a.6.6,0,0,1-.6.6H.6a.6.6,0,0,1-.6-.6V.6A.6.6,0,0,1,.6,0Z" transform="translate(32.879 24.87) rotate(-6.39)" fill="url(#linear-gradient-4)"/>
    <path id="Path_510" data-name="Path 510" d="M.6,0H11.569a.6.6,0,0,1,.6.6V12.907a.6.6,0,0,1-.6.6H.6a.6.6,0,0,1-.6-.6V.6A.6.6,0,0,1,.6,0Z" transform="translate(17.915 26.626) rotate(-6.39)" fill="url(#linear-gradient-5)"/>
    <path id="Path_511" data-name="Path 511" d="M.6,0h11a.6.6,0,0,1,.6.6V17.008a.6.6,0,0,1-.6.6H.6a.6.6,0,0,1-.6-.6V.6A.6.6,0,0,1,.6,0Z" transform="translate(3.02 28.316) rotate(-6.39)" fill="url(#linear-gradient-6)"/>
  </g>
</svg>
